<svg xmlns="http://www.w3.org/2000/svg"  viewBox="0 0 64 64" width="64px" height="64px" baseProfile="basic"><linearGradient id="AeEXXwNHr2I-9MLSTOaWNa" x1="32" x2="32" y1="9.083" y2="54.676" gradientUnits="userSpaceOnUse"><stop offset="0" stop-color="#1a6dff"/><stop offset="1" stop-color="#c822ff"/></linearGradient><path fill="url(#AeEXXwNHr2I-9MLSTOaWNa)" d="M50,55H14c-2.757,0-5-2.243-5-5V14c0-2.757,2.243-5,5-5h36c2.757,0,5,2.243,5,5v36	C55,52.757,52.757,55,50,55z M14,11c-1.654,0-3,1.346-3,3v36c0,1.654,1.346,3,3,3h36c1.654,0,3-1.346,3-3V14c0-1.654-1.346-3-3-3H14	z M37.598,31.629c-0.229,0.153-0.573,0.267-0.993,0.267c-0.649,0-1.261-0.077-1.871-0.267c-0.153-0.038-0.267-0.077-0.344-0.077	c-0.115,0-0.153,0.077-0.153,0.229v0.382c0,0.115,0.038,0.19,0.077,0.267c0.038,0.038,0.115,0.115,0.229,0.153	c0.611,0.267,1.299,0.382,2.063,0.382c0.802,0,1.413-0.19,1.91-0.573c0.497-0.382,0.726-0.879,0.726-1.528	c0-0.459-0.115-0.802-0.344-1.107c-0.229-0.267-0.611-0.535-1.146-0.726l-1.069-0.42c-0.42-0.153-0.726-0.305-0.84-0.459	c-0.153-0.153-0.229-0.305-0.229-0.573c0-0.573,0.42-0.879,1.299-0.879c0.497,0,0.993,0.077,1.451,0.229	c0.153,0.038,0.267,0.077,0.305,0.077c0.115,0,0.191-0.077,0.191-0.229v-0.381c0-0.115-0.038-0.191-0.077-0.267	c-0.038-0.077-0.115-0.115-0.229-0.153c-0.573-0.19-1.146-0.305-1.719-0.305c-0.726,0-1.337,0.191-1.795,0.535	c-0.459,0.344-0.687,0.84-0.687,1.413c0,0.879,0.497,1.528,1.489,1.91l1.146,0.42c0.382,0.153,0.611,0.267,0.764,0.42	c0.153,0.153,0.191,0.305,0.191,0.535C37.942,31.209,37.827,31.476,37.598,31.629L37.598,31.629z M41.685,23.264	c-0.153-0.153-0.382-0.229-0.649-0.229c-0.267,0-0.459,0.077-0.611,0.229c-0.153,0.153-0.229,0.344-0.229,0.573	c0,0.229,0.077,0.459,0.229,0.573c0.153,0.153,0.344,0.229,0.611,0.229c0.267,0,0.459-0.077,0.611-0.229	c0.153-0.153,0.229-0.344,0.229-0.573C41.877,23.607,41.838,23.379,41.685,23.264L41.685,23.264z M41.456,25.862h-0.802	c-0.19,0-0.267,0.077-0.267,0.267v6.341c0,0.19,0.077,0.267,0.267,0.267h0.802c0.19,0,0.267-0.077,0.267-0.267v-6.341	C41.723,25.975,41.647,25.862,41.456,25.862L41.456,25.862z M45.046,27.389c0.344-0.382,0.879-0.573,1.643-0.573	c0.382,0,0.764,0.038,1.107,0.153c0.115,0.038,0.153,0.038,0.229,0.038c0.115,0,0.19-0.077,0.19-0.267v-0.382	c0-0.115-0.038-0.229-0.077-0.267c-0.038-0.038-0.115-0.115-0.191-0.153c-0.497-0.115-0.993-0.229-1.451-0.229	c-1.069,0-1.871,0.305-2.483,0.955c-0.573,0.611-0.879,1.528-0.879,2.674s0.267,2.025,0.84,2.635	c0.573,0.611,1.375,0.917,2.445,0.917c0.573,0,1.107-0.077,1.528-0.267c0.115-0.038,0.191-0.077,0.229-0.153	c0.038-0.038,0.038-0.153,0.038-0.267v-0.382c0-0.191-0.077-0.267-0.191-0.267c-0.038,0-0.115,0-0.19,0.038	c-0.42,0.115-0.84,0.191-1.222,0.191c-0.726,0-1.261-0.191-1.604-0.573s-0.497-0.994-0.497-1.795v-0.191	C44.55,28.382,44.702,27.771,45.046,27.389L45.046,27.389z M24.344,32.736h0.802c0.191,0,0.267-0.077,0.267-0.267v-4.775	c0-0.649-0.153-1.146-0.497-1.489c-0.344-0.344-0.802-0.535-1.451-0.535c-0.879,0-1.795,0.305-2.674,0.955	c-0.305-0.649-0.879-0.955-1.719-0.955s-1.681,0.305-2.521,0.879l-0.077-0.42c0-0.115-0.038-0.153-0.115-0.19	c-0.038-0.038-0.115-0.038-0.19-0.038h-0.611c-0.19,0-0.267,0.077-0.267,0.267v6.341c0,0.191,0.077,0.267,0.267,0.267h0.802	c0.19,0,0.267-0.077,0.267-0.267v-5.157c0.649-0.382,1.299-0.611,1.986-0.611c0.382,0,0.649,0.115,0.802,0.344	c0.153,0.229,0.267,0.535,0.267,0.993v4.393c0,0.191,0.077,0.267,0.267,0.267h0.802c0.19,0,0.267-0.077,0.267-0.267v-4.698v-0.229	c0-0.077,0-0.153,0-0.191c0.687-0.42,1.337-0.611,1.986-0.611c0.382,0,0.649,0.115,0.802,0.344s0.267,0.535,0.267,0.993v4.393	C24.077,32.66,24.154,32.736,24.344,32.736L24.344,32.736z M31.602,26.129v5.08c-0.649,0.42-1.299,0.649-1.948,0.649	c-0.42,0-0.726-0.115-0.917-0.344c-0.191-0.229-0.267-0.573-0.267-1.069v-4.316c0-0.191-0.077-0.267-0.267-0.267H27.4	c-0.19,0-0.267,0.077-0.267,0.267v4.736c0,0.649,0.153,1.184,0.497,1.528c0.344,0.344,0.84,0.535,1.489,0.535	c0.879,0,1.758-0.305,2.597-0.917l0.077,0.459c0,0.115,0.038,0.153,0.115,0.19c0.038,0.038,0.115,0.038,0.229,0.038h0.573	c0.19,0,0.267-0.077,0.267-0.267v-6.302c0-0.191-0.077-0.267-0.267-0.267h-0.802C31.678,25.862,31.602,25.975,31.602,26.129	L31.602,26.129z"/><linearGradient id="AeEXXwNHr2I-9MLSTOaWNb" x1="32" x2="32" y1="35.292" y2="42.931" gradientUnits="userSpaceOnUse"><stop offset="0" stop-color="#6dc7ff"/><stop offset="1" stop-color="#e6abff"/></linearGradient><path fill="url(#AeEXXwNHr2I-9MLSTOaWNb)" d="M46.765,41.441c1.986-1.681,2.521-5.157,2.101-5.691c-0.191-0.229-1.107-0.459-2.253-0.459	c-1.222,0-2.674,0.267-3.781,1.031c-0.344,0.229-0.267,0.535,0.077,0.497c1.184-0.153,3.858-0.459,4.354,0.153	c0.459,0.611-0.535,3.132-0.993,4.24C46.154,41.556,46.421,41.67,46.765,41.441L46.765,41.441z M45.161,37.851	c-4.163,1.758-8.709,2.635-12.833,2.635c-6.111,0-12.031-1.681-16.806-4.469c-0.077-0.038-0.153-0.077-0.229-0.077	c-0.267,0-0.42,0.305-0.153,0.573c4.431,4.011,10.313,6.417,16.806,6.417c4.66,0,10.045-1.451,13.751-4.201	C46.345,38.271,45.81,37.584,45.161,37.851L45.161,37.851z"/></svg>